<svg width="20" height="17" viewBox="0 0 20 17" fill="none" xmlns="http://www.w3.org/2000/svg">
<path d="M4.53204 14.731V13.507C4.53204 13.3483 4.47538 13.2067 4.36204 13.082C4.24871 12.9573 4.10704 12.9007 3.93704 12.912H2.71304C2.55438 12.912 2.41271 12.9687 2.28804 13.082C2.16338 13.1953 2.10104 13.337 2.10104 13.507V14.731C2.10104 14.8897 2.16338 15.0313 2.28804 15.156C2.41271 15.2807 2.55438 15.343 2.71304 15.343H3.93704C4.09571 15.343 4.23738 15.2807 4.36204 15.156C4.48671 15.0313 4.54338 14.8897 4.53204 14.731ZM4.53204 11.093V9.869C4.53204 9.71033 4.47538 9.56867 4.36204 9.444C4.24871 9.31933 4.10704 9.257 3.93704 9.257H2.71304C2.55438 9.257 2.41271 9.31933 2.28804 9.444C2.16338 9.56867 2.10104 9.71033 2.10104 9.869V11.093C2.10104 11.2517 2.16338 11.3933 2.28804 11.518C2.41271 11.6427 2.55438 11.6993 2.71304 11.688H3.93704C4.09571 11.688 4.23738 11.6313 4.36204 11.518C4.48671 11.4047 4.54338 11.263 4.53204 11.093ZM4.53204 7.438V6.231C4.53204 6.061 4.47538 5.91933 4.36204 5.806C4.24871 5.69267 4.10704 5.63033 3.93704 5.619H2.71304C2.55438 5.619 2.41271 5.68133 2.28804 5.806C2.16338 5.93067 2.10104 6.07233 2.10104 6.231V7.438C2.10104 7.608 2.16338 7.74967 2.28804 7.863C2.41271 7.97633 2.55438 8.03867 2.71304 8.05H3.93704C4.09571 8.05 4.23738 7.98767 4.36204 7.863C4.48671 7.73833 4.54338 7.59667 4.53204 7.438ZM14.256 14.731V9.869C14.256 9.71033 14.1937 9.56867 14.069 9.444C13.9444 9.31933 13.8027 9.257 13.644 9.257H6.35104C6.19238 9.257 6.05071 9.31933 5.92604 9.444C5.80138 9.56867 5.74471 9.71033 5.75604 9.869V14.731C5.75604 14.8897 5.81271 15.0313 5.92604 15.156C6.03938 15.2807 6.18104 15.343 6.35104 15.343H13.644C13.814 15.343 13.9557 15.2807 14.069 15.156C14.1824 15.0313 14.2447 14.8897 14.256 14.731ZM4.53204 3.8V2.593C4.53204 2.423 4.47538 2.27567 4.36204 2.151C4.24871 2.02633 4.10704 1.96967 3.93704 1.981H2.71304C2.55438 1.981 2.41271 2.03767 2.28804 2.151C2.16338 2.26433 2.10104 2.41167 2.10104 2.593V3.8C2.10104 3.95867 2.16338 4.10033 2.28804 4.225C2.41271 4.34967 2.55438 4.412 2.71304 4.412H3.93704C4.09571 4.412 4.23738 4.34967 4.36204 4.225C4.48671 4.10033 4.54338 3.95867 4.53204 3.8ZM17.894 14.731V13.507C17.894 13.3483 17.8317 13.2067 17.707 13.082C17.5824 12.9573 17.4407 12.9007 17.282 12.912H16.075C15.905 12.912 15.7634 12.9687 15.65 13.082C15.5367 13.1953 15.4744 13.337 15.463 13.507V14.731C15.463 14.8897 15.5254 15.0313 15.65 15.156C15.7747 15.2807 15.9164 15.343 16.075 15.343H17.282C17.452 15.343 17.5937 15.2807 17.707 15.156C17.8204 15.0313 17.8827 14.8897 17.894 14.731ZM14.256 7.438V2.593C14.256 2.423 14.1937 2.27567 14.069 2.151C13.9444 2.02633 13.8027 1.96967 13.644 1.981H6.35104C6.19238 1.981 6.05071 2.03767 5.92604 2.151C5.80138 2.26433 5.74471 2.41167 5.75604 2.593V7.438C5.75604 7.608 5.81271 7.74967 5.92604 7.863C6.03938 7.97633 6.18104 8.03867 6.35104 8.05H13.644C13.814 8.05 13.9557 7.98767 14.069 7.863C14.1824 7.73833 14.2447 7.59667 14.256 7.438ZM17.894 11.093V9.869C17.894 9.71033 17.8317 9.56867 17.707 9.444C17.5824 9.31933 17.4407 9.257 17.282 9.257H16.075C15.905 9.257 15.7634 9.31933 15.65 9.444C15.5367 9.56867 15.4744 9.71033 15.463 9.869V11.093C15.463 11.2517 15.5254 11.3933 15.65 11.518C15.7747 11.6427 15.9164 11.6993 16.075 11.688H17.282C17.452 11.688 17.5937 11.6313 17.707 11.518C17.8204 11.4047 17.8827 11.263 17.894 11.093ZM17.894 7.438V6.231C17.894 6.061 17.8317 5.91933 17.707 5.806C17.5824 5.69267 17.4407 5.63033 17.282 5.619H16.075C15.905 5.619 15.7634 5.68133 15.65 5.806C15.5367 5.93067 15.4744 6.07233 15.463 6.231V7.438C15.463 7.608 15.5254 7.74967 15.65 7.863C15.7747 7.97633 15.9164 8.03867 16.075 8.05H17.282C17.452 8.05 17.5937 7.98767 17.707 7.863C17.8204 7.73833 17.8827 7.59667 17.894 7.438ZM17.894 3.8V2.593C17.894 2.423 17.8317 2.27567 17.707 2.151C17.5824 2.02633 17.4407 1.96967 17.282 1.981H16.075C15.905 1.981 15.7634 2.03767 15.65 2.151C15.5367 2.26433 15.4744 2.41167 15.463 2.593V3.8C15.463 3.95867 15.5254 4.10033 15.65 4.225C15.7747 4.34967 15.9164 4.412 16.075 4.412H17.282C17.452 4.412 17.5937 4.34967 17.707 4.225C17.8204 4.10033 17.8827 3.95867 17.894 3.8ZM19.101 2.287V15.037C19.101 15.4563 18.9537 15.8133 18.659 16.108C18.3644 16.4027 18.0074 16.55 17.588 16.55H2.40704C1.99904 16.55 1.64204 16.4027 1.33604 16.108C1.03004 15.8133 0.88271 15.4563 0.894043 15.037V2.287C0.894043 1.86767 1.04138 1.51067 1.33604 1.216C1.63071 0.921332 1.98771 0.768332 2.40704 0.756999H17.588C18.0074 0.756999 18.3644 0.909999 18.659 1.216C18.9537 1.522 19.101 1.879 19.101 2.287Z" fill="white"/>
</svg>
