<svg width="16" height="17" viewBox="0 0 16 17" fill="none" xmlns="http://www.w3.org/2000/svg">
<path d="M11.0453 7.438C11.0453 6.27067 10.6316 5.27333 9.80426 4.446C8.97692 3.61867 7.97392 3.19933 6.79526 3.188C5.61659 3.17667 4.61359 3.596 3.78626 4.446C2.95892 5.296 2.54526 6.29333 2.54526 7.438C2.54526 8.58267 2.95892 9.58567 3.78626 10.447C4.61359 11.3083 5.61659 11.722 6.79526 11.688C7.97392 11.654 8.97692 11.2403 9.80426 10.447C10.6316 9.65367 11.0453 8.65067 11.0453 7.438ZM15.9073 15.343C15.9073 15.6717 15.7826 15.955 15.5333 16.193C15.2839 16.431 14.9949 16.55 14.6663 16.55C14.3376 16.55 14.0599 16.431 13.8333 16.193L10.5863 12.946C9.45293 13.728 8.18926 14.119 6.79526 14.119C5.88859 14.119 5.02159 13.9433 4.19426 13.592C3.36692 13.2407 2.65859 12.7647 2.06926 12.164C1.47992 11.5633 1.00392 10.855 0.641258 10.039C0.278591 9.223 0.102924 8.356 0.114258 7.438C0.125591 6.52 0.301258 5.65867 0.641258 4.854C0.981258 4.04933 1.45726 3.33533 2.06926 2.712C2.68126 2.08867 3.38959 1.61267 4.19426 1.284C4.99892 0.955333 5.86592 0.779666 6.79526 0.756999C7.72459 0.734333 8.59159 0.91 9.39626 1.284C10.2009 1.658 10.9093 2.134 11.5213 2.712C12.1333 3.29 12.6093 4.004 12.9493 4.854C13.2893 5.704 13.4649 6.56533 13.4763 7.438C13.4763 8.832 13.0853 10.0957 12.3033 11.229L15.5503 14.476C15.7883 14.714 15.9073 15.003 15.9073 15.343Z" fill="white"/>
</svg>
