<svg width="16" height="16" viewBox="0 0 16 16" fill="none" xmlns="http://www.w3.org/2000/svg">
<path d="M10.9093 10.07L13.7993 7.248L9.80426 6.67L8.00226 3.049L6.21726 6.67L2.20526 7.248L5.11226 10.07L4.41526 14.065L8.00226 12.178L11.5893 14.065L10.9093 10.07ZM15.9073 6.687C15.9073 6.823 15.8223 6.976 15.6523 7.146L12.2183 10.495L13.0343 15.238V15.442C13.0343 15.7593 12.9039 15.918 12.6433 15.918C12.5299 15.918 12.4053 15.8783 12.2693 15.799L8.00226 13.555L3.75226 15.799C3.61626 15.8783 3.48592 15.918 3.36126 15.918C3.23659 15.918 3.14026 15.867 3.07226 15.765C3.00426 15.663 2.97026 15.5553 2.97026 15.442C2.97026 15.3967 2.97592 15.3287 2.98726 15.238L3.80326 10.495L0.352258 7.146C0.193591 6.976 0.114258 6.823 0.114258 6.687C0.114258 6.449 0.289924 6.30167 0.641258 6.245L5.40126 5.565L7.54326 1.247C7.66792 0.986333 7.82092 0.856 8.00226 0.856C8.18359 0.856 8.34226 0.986333 8.47826 1.247L10.6033 5.565L15.3633 6.245C15.7259 6.30167 15.9073 6.449 15.9073 6.687Z" fill="white"/>
</svg>
