<svg width="16" height="18" viewBox="0 0 16 18" fill="none" xmlns="http://www.w3.org/2000/svg">
<path d="M12.1019 7.979C12.3966 8.06967 12.6799 8.19433 12.9519 8.353C13.2239 8.51167 13.5072 8.73833 13.8019 9.033C14.0966 9.32767 14.3459 9.696 14.5499 10.138C14.7539 10.58 14.9296 11.124 15.0769 11.77C15.2242 12.416 15.2922 13.164 15.2809 14.014C15.2809 14.9887 14.9636 15.8217 14.3289 16.513C13.6942 17.2043 12.9349 17.55 12.0509 17.55H3.94191C3.05791 17.55 2.29858 17.2043 1.66391 16.513C1.02925 15.8217 0.711914 14.9887 0.711914 14.014C0.711914 13.1867 0.779914 12.4387 0.915914 11.77C1.05191 11.1013 1.22758 10.5573 1.44291 10.138C1.65825 9.71867 1.90758 9.35033 2.19091 9.033C2.47425 8.71567 2.75758 8.489 3.04091 8.353C3.32425 8.217 3.60758 8.09233 3.89091 7.979C3.39225 7.197 3.14291 6.34133 3.14291 5.412C3.14291 4.75467 3.27325 4.12567 3.53391 3.525C3.79458 2.92433 4.14025 2.40867 4.57091 1.978C5.00158 1.54733 5.51725 1.20167 6.11791 0.941C6.71858 0.680333 7.34758 0.55 8.00491 0.55C8.66225 0.55 9.28558 0.680333 9.87491 0.941C10.4642 1.20167 10.9856 1.54733 11.4389 1.978C11.8922 2.40867 12.2379 2.92433 12.4759 3.525C12.7139 4.12567 12.8386 4.75467 12.8499 5.412C12.8499 6.34133 12.6006 7.197 12.1019 7.979ZM8.00491 1.757C6.99625 1.757 6.13491 2.114 5.42091 2.828C4.70691 3.542 4.34991 4.40333 4.34991 5.412C4.34991 6.42067 4.70691 7.27633 5.42091 7.979C6.13491 8.68167 6.99625 9.03867 8.00491 9.05C9.01358 9.06133 9.86925 8.70433 10.5719 7.979C11.2746 7.25367 11.6316 6.398 11.6429 5.412C11.6542 4.426 11.2972 3.56467 10.5719 2.828C9.84658 2.09133 8.99091 1.73433 8.00491 1.757ZM12.0509 16.343C12.6062 16.343 13.0822 16.1163 13.4789 15.663C13.8756 15.2097 14.0739 14.66 14.0739 14.014C14.0739 12.4953 13.8246 11.2997 13.3259 10.427C12.8272 9.55433 12.1132 9.101 11.1839 9.067C10.2659 9.86033 9.20625 10.257 8.00491 10.257C6.80358 10.257 5.73825 9.86033 4.80891 9.067C3.87958 9.101 3.16558 9.55433 2.66691 10.427C2.16825 11.2997 1.91891 12.4953 1.91891 14.014C1.91891 14.66 2.11725 15.2097 2.51391 15.663C2.91058 16.1163 3.38658 16.343 3.94191 16.343H12.0509Z" fill="white"/>
</svg>
